<?xml version="1.0" encoding="UTF-8" standalone="no"?>
<svg
   xmlns:dc="http://purl.org/dc/elements/1.1/"
   xmlns:cc="http://creativecommons.org/ns#"
   xmlns:rdf="http://www.w3.org/1999/02/22-rdf-syntax-ns#"
   xmlns:svg="http://www.w3.org/2000/svg"
   xmlns="http://www.w3.org/2000/svg"
   xmlns:sodipodi="http://sodipodi.sourceforge.net/DTD/sodipodi-0.dtd"
   xmlns:inkscape="http://www.inkscape.org/namespaces/inkscape"
   viewBox="0 0 64 64"
   version="1.1"
   id="svg8"
   sodipodi:docname="osd-rotate-flip.svg"
   inkscape:version="0.92.2 5c3e80d, 2017-08-06">
  <metadata
     id="metadata12">
    <rdf:RDF>
      <cc:Work
         rdf:about="">
        <dc:format>image/svg+xml</dc:format>
        <dc:type
           rdf:resource="http://purl.org/dc/dcmitype/StillImage" />
        <dc:title></dc:title>
      </cc:Work>
    </rdf:RDF>
  </metadata>
  <sodipodi:namedview
     pagecolor="#ffffff"
     bordercolor="#666666"
     borderopacity="1"
     objecttolerance="10"
     gridtolerance="10"
     guidetolerance="10"
     inkscape:pageopacity="0"
     inkscape:pageshadow="2"
     inkscape:window-width="960"
     inkscape:window-height="964"
     id="namedview10"
     showgrid="false"
     inkscape:zoom="3.6875"
     inkscape:cx="32"
     inkscape:cy="32"
     inkscape:window-x="960"
     inkscape:window-y="34"
     inkscape:window-maximized="0"
     inkscape:current-layer="svg8" />
  <defs
     id="defs3051">
    <style
       type="text/css"
       id="current-color-scheme">
      .ColorScheme-Text {
        color:#4d4d4d;
      }
      .ColorScheme-Highlight {
        color:#3daee9;
      }
      </style>
  </defs>
  <path
     style="opacity:0.98999999;fill:#4d4d4d;fill-opacity:1;stroke:none;stroke-opacity:0.35714291"
     d="m 8.99999,9.996002 c -1.662,-2.8e-4 -3,1.36587 -3,3.0625 v 34.9375 h -1 -3 v 3 c 0,1.662 1.338,2.99976 3,3 l 54,0.008 c 1.662,2.4e-4 3,-1.338 3,-3 v -3 h -3 -1 v -34.9375 c 0,-1.69662 -1.338,-3.06222 -3,-3.0625 z m 0,1 46,0.008 c 1.11412,1.9e-4 2,0.89163 2,2.0625 v 34.93731 h -18 -1 -12 -1 l -18,-0.008 v -34.9375 c -0.002,-1.17088 0.88588,-2.06269 2,-2.0625 z m 22.5,0.008 c -0.277,0 -0.5,0.223 -0.5,0.5 0,0.27008 0.21313,0.48533 0.48047,0.49609 l -22.48047,-0.004 c -0.56623,-1e-4 -1,0.41737 -1,1.0625 v 32.875 c 0,0.64512 0.43377,1.06241 1,1.0625 l 46,0.008 c 0.56623,9e-5 1,-0.41738 1,-1.0625 v -32.875 c 0,-0.64513 -0.43377,-1.0624 -1,-1.0625 l -22.48047,-0.004 c 0.26734,-0.0108 0.48047,-0.22601 0.48047,-0.49609 0,-0.277 -0.223,-0.5 -0.5,-0.5 z m -22.5,1.99219 46,0.008 c 0.0183,0 0,-0.0569 0,0.0625 v 32.875 c 0,0.1194 0.0183,0.0625 0,0.0625 l -46,-0.008 c -0.0183,0 0,0.0569 0,-0.0625 v -32.875 c 0,-0.11938 -0.0183,-0.0625 0,-0.0625 z m -6,36 h 2 1 1 l 18,0.008 c 0,1.10457 0.89543,2 2,2 h 10 c 1.10457,0 2,-0.89543 2,-2 h 18 1 1 2 v 2 c 0,1.1253 -0.8747,2.00016 -2,2 l -54,-0.008 c -1.1253,-1.6e-4 -2,-0.8747 -2,-2 z m 23,0.008 h 12 c 0,0.56413 -0.43587,1 -1,1 h -10 c -0.56413,0 -1,-0.43587 -1,-1 z"
     id="path937"
     inkscape:connector-curvature="0" />
  <path
     inkscape:connector-curvature="0"
     style="fill:#3daee9;fill-opacity:1;stroke:none;stroke-width:1px;stroke-linecap:butt;stroke-linejoin:miter;stroke-opacity:1"
     d="m 31.99218,17.003922 -4,7 h 3 v 11 h -3 l 4,7 4,-7 h -3 v -11 h 3 z"
     id="path967" />
</svg>
