<?xml version="1.0" encoding="UTF-8" standalone="no"?>
<svg
   xmlns:dc="http://purl.org/dc/elements/1.1/"
   xmlns:cc="http://creativecommons.org/ns#"
   xmlns:rdf="http://www.w3.org/1999/02/22-rdf-syntax-ns#"
   xmlns:svg="http://www.w3.org/2000/svg"
   xmlns="http://www.w3.org/2000/svg"
   xmlns:sodipodi="http://sodipodi.sourceforge.net/DTD/sodipodi-0.dtd"
   xmlns:inkscape="http://www.inkscape.org/namespaces/inkscape"
   viewBox="0 0 64 64"
   version="1.1"
   id="svg8"
   sodipodi:docname="osd-sbs-sright.svg"
   inkscape:version="0.92.2 5c3e80d, 2017-08-06">
  <metadata
     id="metadata12">
    <rdf:RDF>
      <cc:Work
         rdf:about="">
        <dc:format>image/svg+xml</dc:format>
        <dc:type
           rdf:resource="http://purl.org/dc/dcmitype/StillImage" />
        <dc:title></dc:title>
      </cc:Work>
    </rdf:RDF>
  </metadata>
  <sodipodi:namedview
     pagecolor="#ffffff"
     bordercolor="#666666"
     borderopacity="1"
     objecttolerance="10"
     gridtolerance="10"
     guidetolerance="10"
     inkscape:pageopacity="0"
     inkscape:pageshadow="2"
     inkscape:window-width="960"
     inkscape:window-height="964"
     id="namedview10"
     showgrid="false"
     inkscape:zoom="1"
     inkscape:cx="-21.624106"
     inkscape:cy="65.429716"
     inkscape:window-x="960"
     inkscape:window-y="34"
     inkscape:window-maximized="0"
     inkscape:current-layer="svg8" />
  <defs
     id="defs3051">
    <style
       type="text/css"
       id="current-color-scheme">
      .ColorScheme-Text {
        color:#4d4d4d;
      }
      .ColorScheme-Highlight {
        color:#3daee9;
      }
      </style>
  </defs>
  <path
     style="fill:#4d4d4d;fill-opacity:1;stroke:none;stroke-width:0.63827002"
     d="M 25 13 L 25 15 L 27 15 L 27 17 L 28 17 L 28 15 L 59 15 L 59 33 L 44 33 L 43 33 L 41 33 L 41 34 L 41 35 L 43 35 L 43 40.003906 L 42.697266 40.283203 A 1.0001 1.0001 0 0 1 43 41 L 43 41.363281 L 43 44 L 43 46 L 44 46 L 44 41.361328 L 49.035156 46 L 50.513672 46 L 44 40 L 44 35 L 46 35 L 46 34 L 60 34 L 60 15 L 62 15 L 62 13 L 25 13 z M 5.8164062 18 C 4.8104562 18 4 18.810456 4 19.816406 L 4 41 L 2 41 L 2 44 C 2 45.108 2.892 46 4 46 L 40 46 C 41.108 46 42 45.108 42 44 L 42 41 L 40 41 L 40 19.816406 C 40 18.810456 39.189544 18 38.183594 18 L 5.8164062 18 z M 5.8164062 19 L 21.5 19 C 21.223 19 21 19.223 21 19.5 C 21 19.777 21.223 20 21.5 20 L 6 20 L 6 40 L 38 40 L 38 20 L 22.5 20 C 22.777 20 23 19.777 23 19.5 C 23 19.223 22.777 19 22.5 19 L 38.183594 19 C 38.652434 19 39 19.347566 39 19.816406 L 39 41 L 25 41 L 19 41 L 5 41 L 5 19.816406 C 5 19.347566 5.3475662 19 5.8164062 19 z M 7 21 L 37 21 L 37 39 L 7 39 L 7 21 z M 3 42 L 4 42 L 5 42 L 18 42 C 18 42.554 18.446 43 19 43 L 25 43 C 25.554 43 26 42.554 26 42 L 39 42 L 40 42 L 41 42 L 41 44 C 41 44.5713 40.5713 45 40 45 L 4 45 C 3.4287 45 3 44.5713 3 44 L 3 42 z "
     id="path3301" />
  <path
     style="fill:#3daee9;fill-opacity:1;stroke:none"
     d="M 42 18 L 42 21 L 49 21 L 49 29 L 42 29 L 42 30 L 50 30 L 50 21 L 50 20 L 50 18 L 42 18 z M 44 19 L 45 19 L 45 20 L 44 20 L 44 19 z M 46 19 L 47 19 L 47 20 L 46 20 L 46 19 z M 48 19 L 49 19 L 49 20 L 48 20 L 48 19 z M 29 24 L 29 26 L 29 27 L 29 36 L 36 36 L 36 35 L 30 35 L 30 27 L 36 27 L 36 24 L 29 24 z "
     id="path3321" />
</svg>
