<?xml version="1.0" encoding="UTF-8" standalone="no"?>
<svg
   xmlns:dc="http://purl.org/dc/elements/1.1/"
   xmlns:cc="http://creativecommons.org/ns#"
   xmlns:rdf="http://www.w3.org/1999/02/22-rdf-syntax-ns#"
   xmlns:svg="http://www.w3.org/2000/svg"
   xmlns="http://www.w3.org/2000/svg"
   xmlns:sodipodi="http://sodipodi.sourceforge.net/DTD/sodipodi-0.dtd"
   xmlns:inkscape="http://www.inkscape.org/namespaces/inkscape"
   viewBox="0 0 64 64"
   version="1.1"
   id="svg8"
   sodipodi:docname="osd-rotate-normal.svg"
   inkscape:version="0.92.2 5c3e80d, 2017-08-06">
  <metadata
     id="metadata12">
    <rdf:RDF>
      <cc:Work
         rdf:about="">
        <dc:format>image/svg+xml</dc:format>
        <dc:type
           rdf:resource="http://purl.org/dc/dcmitype/StillImage" />
        <dc:title></dc:title>
      </cc:Work>
    </rdf:RDF>
  </metadata>
  <sodipodi:namedview
     pagecolor="#ffffff"
     bordercolor="#666666"
     borderopacity="1"
     objecttolerance="10"
     gridtolerance="10"
     guidetolerance="10"
     inkscape:pageopacity="0"
     inkscape:pageshadow="2"
     inkscape:window-width="960"
     inkscape:window-height="964"
     id="namedview10"
     showgrid="false"
     inkscape:zoom="3.6875"
     inkscape:cx="32"
     inkscape:cy="32"
     inkscape:window-x="960"
     inkscape:window-y="34"
     inkscape:window-maximized="0"
     inkscape:current-layer="svg8" />
  <defs
     id="defs3051">
    <style
       type="text/css"
       id="current-color-scheme">
      .ColorScheme-Text {
        color:#4d4d4d;
      }
      .ColorScheme-Highlight {
        color:#3daee9;
      }
      </style>
  </defs>
  <path
     inkscape:connector-curvature="0"
     style="opacity:0.98999999;fill:#4d4d4d;fill-opacity:1;stroke:none;stroke-opacity:0.35714291"
     d="m 9.0000001,9.9997996 c -1.662,-2.8e-4 -3,1.3658804 -3,3.0625004 v 34.93751 h -1 -3 v 3 c 0,1.662 1.338,2.99976 3,3 L 59,54.00781 c 1.662,2.4e-4 3,-1.338 3,-3 v -3 h -3 -1 v -34.9377 c 0,-1.69662 -1.338,-3.06222 -3,-3.0625 z m 0,1.0000004 L 55,11.0078 c 1.11412,1.9e-4 2,0.89163 2,2.0625 V 48.00761 H 39 38 26 25 L 7.0000001,47.99961 V 13.0623 c -0.002,-1.17087 0.88588,-2.06269 2,-2.0625 z M 31.5,11.0078 c -0.277,0 -0.5,0.223 -0.5,0.5 0,0.27008 0.21313,0.48533 0.48047,0.49609 L 9.0000001,11.99979 c -0.56623,-9e-5 -1,0.41738 -1,1.0625 V 45.9373 c 0,0.64512 0.43377,1.06241 1,1.0625 L 55,47.0078 c 0.56623,9e-5 1,-0.41738 1,-1.0625 V 13.07011 c 0,-0.64512 -0.43377,-1.0624 -1,-1.0625 l -22.48047,-0.004 C 32.78687,11.99291 33,11.77769 33,11.50761 c 0,-0.277 -0.223,-0.5 -0.5,-0.5 z M 9.0000001,12.99999 55,13.00799 c 0.0183,0 0,-0.0569 0,0.0625 v 32.875 c 0,0.1194 0.0183,0.0625 0,0.0625 l -45.9999999,-0.008 c -0.0183,0 0,0.0569 0,-0.0625 V 13.0627 c 0,-0.11938 -0.0183,-0.0625 0,-0.0625 z m -6,36.00001 h 2 1 1 L 25,49.008 c 0,1.10457 0.89543,2 2,2 h 10 c 1.10457,0 2,-0.89543 2,-2 h 18 1 1 2 v 2 c 0,1.1253 -0.8747,2.00016 -2,2 L 5.0000001,53 c -1.1253,-1.6e-4 -2,-0.8747 -2,-2 z M 26,49.008 h 12 c 0,0.56413 -0.43587,1 -1,1 H 27 c -0.56413,0 -1,-0.43587 -1,-1 z"
     id="path2197" />
  <path
     inkscape:connector-curvature="0"
     id="path2850"
     d="m 20,20 v 2 1 9 h 16 v -9 -1 -2 z m 10,1 h 1 v 1 h -1 z m 2,0 h 1 v 1 h -1 z m 2,0 h 1 v 1 h -1 z m -13,2 h 14 v 8 H 21 Z m 16,3 v 3 h 7 v 8 H 30 v -4 h -1 v 5 h 16 v -9 -1 -2 z m 2,1 h 1 v 1 h -1 z m 2,0 h 1 v 1 h -1 z m 2,0 h 1 v 1 h -1 z"
     style="fill:#3daee9;fill-opacity:1;stroke:none" />
</svg>
