<?xml version="1.0" encoding="UTF-8" standalone="no"?>
<svg
   xmlns:dc="http://purl.org/dc/elements/1.1/"
   xmlns:cc="http://creativecommons.org/ns#"
   xmlns:rdf="http://www.w3.org/1999/02/22-rdf-syntax-ns#"
   xmlns:svg="http://www.w3.org/2000/svg"
   xmlns="http://www.w3.org/2000/svg"
   xmlns:sodipodi="http://sodipodi.sourceforge.net/DTD/sodipodi-0.dtd"
   xmlns:inkscape="http://www.inkscape.org/namespaces/inkscape"
   viewBox="0 0 64 64"
   version="1.1"
   id="svg8"
   sodipodi:docname="osd-duplicate.svg"
   inkscape:version="0.92.2 5c3e80d, 2017-08-06">
  <metadata
     id="metadata12">
    <rdf:RDF>
      <cc:Work
         rdf:about="">
        <dc:format>image/svg+xml</dc:format>
        <dc:type
           rdf:resource="http://purl.org/dc/dcmitype/StillImage" />
        <dc:title></dc:title>
      </cc:Work>
    </rdf:RDF>
  </metadata>
  <sodipodi:namedview
     pagecolor="#ffffff"
     bordercolor="#666666"
     borderopacity="1"
     objecttolerance="10"
     gridtolerance="10"
     guidetolerance="10"
     inkscape:pageopacity="0"
     inkscape:pageshadow="2"
     inkscape:window-width="960"
     inkscape:window-height="964"
     id="namedview10"
     showgrid="false"
     inkscape:zoom="3.6875"
     inkscape:cx="32"
     inkscape:cy="32"
     inkscape:window-x="960"
     inkscape:window-y="34"
     inkscape:window-maximized="0"
     inkscape:current-layer="svg8" />
  <defs
     id="defs3051">
    <style
       type="text/css"
       id="current-color-scheme">
      .ColorScheme-Text {
        color:#4d4d4d;
      }
      .ColorScheme-Highlight {
        color:#3daee9;
      }
      </style>
  </defs>
  <path
     style="fill:#4d4d4d;fill-opacity:1;stroke:none;stroke-width:0.63827002"
     d="M 25 10 L 25 12 L 27 12 L 27 25 L 28 25 L 28 12 L 59 12 L 59 30 L 44 30 L 43 30 L 41 30 L 41 31 L 41 32 L 43 32 L 43 37 L 41 38.841797 L 41 40.203125 L 43 38.361328 L 43 43 L 44 43 L 44 38.363281 L 49.033203 43 L 50.509766 43 L 44 37.003906 L 44 32 L 46 32 L 46 31 L 60 31 L 60 12 L 62 12 L 62 10 L 25 10 z M 5.8164062 26 C 4.8104562 26 4 26.810456 4 27.816406 L 4 49 L 2 49 L 2 52 C 2 53.108 2.892 54 4 54 L 40 54 C 41.108 54 42 53.108 42 52 L 42 49 L 40 49 L 40 27.816406 C 40 26.810456 39.189544 26 38.183594 26 L 5.8164062 26 z M 5.8164062 27 L 21.5 27 C 21.223 27 21 27.223 21 27.5 C 21 27.777 21.223 28 21.5 28 L 6 28 L 6 48 L 38 48 L 38 28 L 22.5 28 C 22.777 28 23 27.777 23 27.5 C 23 27.223 22.777 27 22.5 27 L 38.183594 27 C 38.652434 27 39 27.347566 39 27.816406 L 39 49 L 25 49 L 19 49 L 5 49 L 5 27.816406 C 5 27.347566 5.3475663 27 5.8164062 27 z M 7 29 L 37 29 L 37 47 L 7 47 L 7 29 z M 3 50 L 4 50 L 5 50 L 18 50 C 18 50.554 18.446 51 19 51 L 25 51 C 25.554 51 26 50.554 26 50 L 39 50 L 40 50 L 41 50 L 41 52 C 41 52.5713 40.5713 53 40 53 L 4 53 C 3.4287 53 3 52.5713 3 52 L 3 50 z "
     id="path3434" />
  <path
     style="fill:#3daee9;fill-opacity:1;stroke:none"
     d="M 37 15 L 37 17 L 37 18 L 37 25 L 38 25 L 38 18 L 52 18 L 52 26 L 41.310547 26 C 41.559517 26.29046 41.747941 26.62732 41.863281 27 L 53 27 L 53 18 L 53 17 L 53 15 L 37 15 z M 47 16 L 48 16 L 48 17 L 47 17 L 47 16 z M 49 16 L 50 16 L 50 17 L 49 17 L 49 16 z M 51 16 L 52 16 L 52 17 L 51 17 L 51 16 z M 14 32 L 14 34 L 14 35 L 14 44 L 30 44 L 30 35 L 30 34 L 30 32 L 14 32 z M 24 33 L 25 33 L 25 34 L 24 34 L 24 33 z M 26 33 L 27 33 L 27 34 L 26 34 L 26 33 z M 28 33 L 29 33 L 29 34 L 28 34 L 28 33 z M 15 35 L 29 35 L 29 43 L 15 43 L 15 35 z "
     id="path3436" />
</svg>
