<?xml version="1.0"?>
<svg xmlns:dc="http://purl.org/dc/elements/1.1/" xmlns:cc="http://creativecommons.org/ns#" xmlns:rdf="http://www.w3.org/1999/02/22-rdf-syntax-ns#" xmlns:svg="http://www.w3.org/2000/svg" xmlns="http://www.w3.org/2000/svg" xmlns:sodipodi="http://sodipodi.sourceforge.net/DTD/sodipodi-0.dtd" xmlns:inkscape="http://www.inkscape.org/namespaces/inkscape" viewBox="0 0 64 64" version="1.1" id="svg10" sodipodi:docname="osd-shutd-laptop.svg" inkscape:version="0.92.2 5c3e80d, 2017-08-06">
  <metadata id="metadata14">
    <rdf:RDF>
      <cc:Work rdf:about="">
        <dc:format>image/svg+xml</dc:format>
        <dc:type rdf:resource="http://purl.org/dc/dcmitype/StillImage"/>
        <dc:title/>
      </cc:Work>
    </rdf:RDF>
  </metadata>
  <sodipodi:namedview pagecolor="#ffffff" bordercolor="#666666" borderopacity="1" objecttolerance="10" gridtolerance="10" guidetolerance="10" inkscape:pageopacity="0" inkscape:pageshadow="2" inkscape:window-width="960" inkscape:window-height="964" id="namedview12" showgrid="false" inkscape:zoom="1" inkscape:cx="14.575195" inkscape:cy="135.66597" inkscape:window-x="960" inkscape:window-y="34" inkscape:window-maximized="0" inkscape:current-layer="svg10"/>
  <defs id="defs3051">
    <style type="text/css" id="current-color-scheme">
      .ColorScheme-Text {
        color:#31363b;
      }
      .ColorScheme-Background {
        color:#eff0f1;
      }
      .ColorScheme-Highlight {
        color:#3daee9;
      }
      .ColorScheme-ViewText {
        color:#31363b;
      }
      .ColorScheme-ViewBackground {
        color:#fcfcfc;
      }
      .ColorScheme-ViewHover {
        color:#93cee9;
      }
      .ColorScheme-ViewFocus{
        color:#3daee9;
      }
      .ColorScheme-ButtonText {
        color:#31363b;
      }
      .ColorScheme-ButtonBackground {
        color:#eff0f1;
      }
      .ColorScheme-ButtonHover {
        color:#93cee9;
      }
      .ColorScheme-ButtonFocus{
        color:#3daee9;
      }
      </style>
  </defs>
  <path style="fill:#4d4d4d;fill-opacity:1;stroke:none;stroke-width:0.63827002" d="M 25 10 L 25 12 L 27 12 L 27 25 L 28 25 L 28 12 L 59 12 L 59 30 L 44 30 L 43 30 L 41 30 L 41 31 L 41 32 L 43 32 L 43 37 L 41 38.841797 L 41 40.203125 L 43 38.361328 L 43 43 L 44 43 L 44 38.363281 L 49.033203 43 L 50.509766 43 L 44 37.003906 L 44 32 L 46 32 L 46 31 L 60 31 L 60 12 L 62 12 L 62 10 L 25 10 z M 5.8164062 26 C 4.8104562 26 4 26.810456 4 27.816406 L 4 49 L 2 49 L 2 52 C 2 53.108 2.892 54 4 54 L 40 54 C 41.108 54 42 53.108 42 52 L 42 49 L 40 49 L 40 27.816406 C 40 26.810456 39.189544 26 38.183594 26 L 5.8164062 26 z M 5.8164062 27 L 21.5 27 C 21.223 27 21 27.223 21 27.5 C 21 27.777 21.223 28 21.5 28 L 6 28 L 6 48 L 38 48 L 38 28 L 22.5 28 C 22.777 28 23 27.777 23 27.5 C 23 27.223 22.777 27 22.5 27 L 38.183594 27 C 38.652434 27 39 27.347566 39 27.816406 L 39 49 L 25 49 L 19 49 L 5 49 L 5 27.816406 C 5 27.347566 5.3475663 27 5.8164062 27 z M 7 29 L 37 29 L 37 47 L 7 47 L 7 29 z M 3 50 L 4 50 L 5 50 L 18 50 C 18 50.554 18.446 51 19 51 L 25 51 C 25.554 51 26 50.554 26 50 L 39 50 L 40 50 L 41 50 L 41 52 C 41 52.5713 40.5713 53 40 53 L 4 53 C 3.4287 53 3 52.5713 3 52 L 3 50 z " id="path3410"/>
  <path style="fill:currentColor;fill-opacity:1;stroke:none" d="m 35.999999,15 v 2 1 7 h 1 v -7 h 14 v 8 h -10.68945 c 0.24897,0.29046 0.43739,0.62732 0.55273,1 h 11.13672 v -9 -1 -2 z m 10,1 h 1 v 1 h -1 z m 2,0 h 1 v 1 h -1 z m 2,0 h 1 v 1 h -1 z" id="path3412" inkscape:connector-curvature="0" class="ColorScheme-Highlight"/>
  <path inkscape:connector-curvature="0" style="color:#da4453;fill:currentColor;fill-opacity:1;stroke:none" class="ColorScheme-NegativeText" d="m 16.705079,32 -0.70703,0.70703 5.29492,5.29492 -5.29102,5.29102 c 0,0 0.71604,0.70203 0.70704,0.70703 L 21.999999,38.70898 27.291019,44 c -0.009,-0.005 0.70703,-0.70703 0.70703,-0.70703 l -5.29102,-5.29102 5.29492,-5.29492 L 27.294919,32 l -5.29492,5.29492 z" id="path3454"/>
</svg>
